<?xml version="1.0" encoding="UTF-8"?>
<svg enable-background="new 0 0 118.53 122.88" version="1.1" viewBox="0 0 118.53 122.88" xml:space="preserve" xmlns="http://www.w3.org/2000/svg"><style type="text/css"><![CDATA[
	.st0{fill:#FFFFFF;}
	.st1{fill:#336791;}
]]></style><path class="st1" d="m113.53 75.55c-14.65 3.02-15.66-1.94-15.66-1.94 15.47-22.95 21.93-52.09 16.35-59.22-15.22-19.45-41.57-10.25-42.01-10.01l-0.15 0.02c-2.89-0.6-6.13-0.96-9.77-1.02-6.63-0.11-11.66 1.74-15.47 4.63 0 0-47.01-19.37-44.82 24.36 0.47 9.3 13.33 70.38 28.68 51.93 5.61-6.75 11.03-12.45 11.03-12.45 2.69 1.79 5.92 2.7 9.29 2.37l0.26-0.22c-0.08 0.84-0.04 1.66 0.1 2.63-3.95 4.42-2.79 5.19-10.7 6.82-8 1.65-3.3 4.58-0.23 5.35 3.72 0.93 12.32 2.25 18.14-5.89l-0.23 0.93c1.55 1.24 2.64 8.07 2.46 14.26s-0.3 10.44 0.92 13.76 2.44 10.79 12.83 8.56c8.68-1.86 13.18-6.68 13.81-14.72 0.44-5.72 1.45-4.87 1.51-9.98l0.81-2.42c0.93-7.75 0.15-10.25 5.5-9.09l1.3 0.11c3.94 0.18 9.09-0.63 12.11-2.04 6.49-3.01 10.36-8.06 3.94-6.73z"/><path class="st0" d="m57.39 79.94c0.03-1 0.86-1.79 1.86-1.76s1.79 0.86 1.76 1.86c-0.21 7.43-0.17 14.88 0.1 20.84 0.25 5.37 0.68 9.41 1.28 10.91 0.64 1.59 1.63 3.94 3.53 5.53 1.85 1.56 4.7 2.51 9.24 1.54 3.97-0.85 6.64-2.06 8.42-3.91 1.76-1.83 2.76-4.42 3.38-8.04 0.46-2.64 1.09-7.25 1.66-11.84 0.72-5.74 1.38-11.54 1.52-13.41 0.07-1 0.94-1.75 1.94-1.67 1 0.07 1.75 0.94 1.67 1.94-0.14 1.82-0.8 7.69-1.55 13.6-0.6 4.74-1.24 9.44-1.68 11.99-0.75 4.33-2.02 7.52-4.35 9.94-2.32 2.41-5.57 3.93-10.28 4.94-5.85 1.25-9.71-0.12-12.32-2.32-2.57-2.16-3.79-5.02-4.56-6.95-0.76-1.89-1.27-6.35-1.54-12.1-0.26-6.01-0.29-13.56-0.08-21.09z"/><path class="st0" d="m47.41 6.01c0.93 0.37 1.38 1.42 1.01 2.35s-1.42 1.38-2.35 1.01c-0.12-0.05-44.42-18.15-42.37 22.73 0.25 5.05 4.25 25.71 10.33 40.12 1.92 4.54 4.03 8.42 6.27 10.9 1.87 2.08 3.78 3.08 5.62 2.42 1.02-0.37 2.11-1.2 3.26-2.58 5.63-6.77 10.75-12.12 10.77-12.13 0.69-0.72 1.83-0.75 2.55-0.06s0.75 1.83 0.06 2.55c-0.01 0.01-5.01 5.22-10.6 11.95-1.59 1.92-3.21 3.11-4.84 3.69-3.46 1.23-6.64-0.21-9.52-3.41-2.52-2.79-4.84-7.02-6.9-11.93-6.25-14.79-10.36-36.11-10.62-41.35-2.33-46.56 47.19-26.32 47.33-26.26z"/><path class="st0" d="m73.1 5.73-2.69-2.94c0.22-0.08 0.44-0.15 0.66-0.21 0.59-0.19 1.23-0.38 1.92-0.58 1.01-0.3 2.49-0.69 4.3-1.04 9.03-1.75 26.65-2.7 38.26 12.14 3.28 4.19 3.01 14.56-0.38 26.84-3 10.87-8.41 23.4-15.89 34.5-0.56 0.83-1.69 1.05-2.52 0.49s-1.05-1.69-0.49-2.52c7.26-10.77 12.5-22.92 15.41-33.44 3.1-11.22 3.59-20.37 1.02-23.65-10.42-13.31-26.49-12.41-34.74-10.8-1.69 0.33-3.04 0.68-3.96 0.95l-0.9 0.26z"/><path class="st0" d="m99.49 72.87c0.02 0.05 0.03 0.1 0.04 0.15 0 0.01 0.62 3.24 13.53 0.58 1.83-0.38 3.13-0.3 3.97 0.11 1.09 0.52 1.56 1.39 1.49 2.51-0.04 0.68-0.36 1.41-0.89 2.14-1.22 1.67-4.01 3.83-7.4 5.4-2.54 1.18-6.41 1.97-9.96 2.17-2.09 0.12-4.09 0.04-5.68-0.28-2-0.4-3.52-1.23-4.15-2.58-0.17-0.36-0.27-0.75-0.29-1.17-0.4-7.02 3.02-8.25 5.41-8.93-0.25-0.36-0.59-0.79-0.97-1.26-1.21-1.51-2.76-3.45-3.99-6.42-0.19-0.45-0.74-1.45-1.48-2.77-3.13-5.61-9.29-16.67-8.08-24.22 0.86-5.39 4.97-8.97 15.24-7.9l-0.1-0.3c-0.49-1.39-1.27-3.21-2.4-5.25-4.48-8.16-14.25-19.54-31.6-19.82-26.47-0.43-25.6 32.95-25.6 33.04 0.02 1-0.78 1.82-1.78 1.84s-1.82-0.78-1.84-1.78c0-0.11-0.98-37.21 29.27-36.72 19.1 0.31 29.82 12.77 34.72 21.69 1.22 2.22 2.09 4.24 2.64 5.81 0.62 1.76 0.85 3.14 0.75 3.75-0.14 0.9-0.64 1.46-1.5 1.63l-0.65 0.01c-9.42-1.51-12.98 0.8-13.58 4.56-1.01 6.33 4.75 16.65 7.67 21.9 0.79 1.42 1.39 2.5 1.66 3.16 1.04 2.51 2.4 4.21 3.46 5.55 0.99 1.21 1.77 2.19 2.09 3.4zm14.3 4.27c-9.57 1.98-14.03 0.53-16.08-1.03-0.28 0.09-0.58 0.17-0.9 0.26-1.28 0.36-3.27 0.92-3.06 5.22 0.15 0.16 0.71 0.33 1.53 0.5 1.31 0.26 2.99 0.32 4.78 0.22 3.13-0.18 6.5-0.85 8.65-1.85 2.21-1.03 4.06-2.27 5.2-3.35l-0.12 0.03z"/><path class="st0" d="m52.6 77.67c-0.74 0.83-1.35 1.6-1.87 2.26-2.22 2.82-2.91 3.7-9.8 5.12-1.24 0.26-2.08 0.51-2.6 0.76 0.64 0.46 1.6 0.84 2.44 1.05 1.7 0.43 4.52 0.94 7.54 0.43 2.94-0.5 6.11-2.01 8.68-5.61 0.08-0.12 0.15-0.25 0.21-0.38 0.26-0.63 0.2-1.42-0.06-2.17-0.28-0.8-0.79-1.5-1.38-1.93-0.14-0.1-0.28-0.18-0.43-0.24l-0.09-0.04c-0.37-0.15-0.78-0.31-1.13-0.28-0.38 0.04-0.86 0.3-1.51 1.03zm-4.72 0.01c0.49-0.62 1.06-1.34 1.92-2.31 0.07-0.09 0.15-0.18 0.23-0.26 1.33-1.44 2.6-1.98 3.77-2.08 1.16-0.1 2.06 0.23 2.82 0.55 0.03 0.01 0.06 0.02 0.1 0.04 0.39 0.16 0.77 0.38 1.14 0.64 1.19 0.85 2.17 2.2 2.7 3.67 0.54 1.53 0.63 3.24-0.01 4.76-0.16 0.38-0.36 0.74-0.61 1.09-3.24 4.54-7.28 6.44-11.02 7.08-3.67 0.63-7.01 0.02-9.03-0.48-1.47-0.37-3.29-1.19-4.36-2.19-0.63-0.59-1.06-1.29-1.18-2.07-0.14-0.93 0.14-1.83 0.99-2.63 0.82-0.77 2.34-1.47 4.85-1.99 5.59-1.15 6.09-1.78 7.69-3.82z"/><path class="st0" d="m52.79 76.1c0.15 0.99-0.53 1.92-1.52 2.06s-1.92-0.53-2.06-1.52c-0.04-0.24-0.06-0.48-0.08-0.73-0.6-0.02-1.19-0.06-1.77-0.15-3.88-0.54-7.39-2.5-10.03-5.4-2.61-2.86-4.37-6.64-4.78-10.86-0.15-1.5-0.12-3.06 0.1-4.63 0.89-6.34 0.55-12.01 0.38-14.95-0.05-0.8-0.08-1.4-0.08-1.86 0.01-1.19 3-3.81 6.94-5.43 1.78-0.73 3.77-1.34 5.74-1.64 2.08-0.31 4.18-0.28 6.07 0.31 2.96 0.93 5.31 3.12 6.21 7.31 3.25 15.01 0.34 21.46-1.93 26.51-0.39 0.87-0.76 1.69-1.04 2.43-0.01 0.05-0.03 0.09-0.05 0.14-0.95 2.56 0.44-1.19-0.28 0.72-1.13 3.08-2.12 5.72-1.82 7.69zm-3.27-3.8c0.39-1.61 1.03-3.31 1.71-5.14 0.54-1.44-0.87 2.33 0.26-0.72l0.06-0.15c0.35-0.93 0.73-1.76 1.12-2.64 2.06-4.57 4.68-10.41 1.69-24.25-0.58-2.69-1.99-4.07-3.75-4.62-1.32-0.41-2.87-0.42-4.46-0.18-1.7 0.26-3.4 0.78-4.92 1.4-2.67 1.09-4.69 2.01-4.69 2.09 0 0.26 0.03 0.85 0.08 1.64 0.18 3.05 0.53 8.96-0.4 15.66-0.18 1.31-0.21 2.58-0.09 3.8 0.33 3.4 1.75 6.45 3.86 8.76 2.08 2.28 4.83 3.83 7.85 4.25 0.56 0.06 1.12 0.1 1.68 0.1z"/><path class="st0" d="m46.57 37.82c-0.08 0.59 1.09 2.18 2.61 2.39s2.83-1.03 2.91-1.62-1.09-1.25-2.61-1.46-2.83 0.1-2.91 0.69z"/><path class="st0" d="m47.17 37.9c-0.02 0.13 0.19 0.47 0.54 0.84 0.39 0.41 0.94 0.78 1.55 0.87h0.01c0.6 0.08 1.16-0.12 1.58-0.41 0.39-0.26 0.63-0.54 0.66-0.7 0-0.03-0.15-0.12-0.4-0.26-0.41-0.23-1.01-0.42-1.7-0.52h-0.02c-0.68-0.09-1.31-0.07-1.76 0.04-0.28 0.07-0.46 0.12-0.46 0.14zm-0.33 1.67c-0.59-0.62-0.92-1.36-0.86-1.82v-0.02c0.08-0.57 0.59-0.96 1.37-1.15 0.59-0.14 1.37-0.17 2.2-0.06h0.03c0.84 0.12 1.59 0.36 2.12 0.66 0.7 0.39 1.09 0.92 1.01 1.48-0.06 0.44-0.51 1.08-1.18 1.53-0.63 0.43-1.49 0.74-2.42 0.61h-0.01c-0.92-0.12-1.71-0.65-2.26-1.23z"/><path class="st0" d="m93.01 36.61c0.08 0.59-1.09 2.18-2.61 2.39-1.53 0.21-2.83-1.03-2.91-1.62s1.09-1.25 2.62-1.46c1.51-0.21 2.81 0.1 2.9 0.69z"/><path class="st0" d="m93.3 36.57c0.05 0.38-0.25 1.03-0.78 1.59-0.51 0.54-1.25 1.03-2.09 1.14h-0.01c-0.84 0.11-1.62-0.17-2.2-0.56-0.6-0.4-0.99-0.95-1.05-1.32-0.06-0.43 0.27-0.85 0.86-1.18 0.5-0.28 1.21-0.51 2.01-0.62s1.55-0.08 2.11 0.05c0.66 0.15 1.09 0.46 1.15 0.9zm-1.22 1.17c0.41-0.43 0.65-0.87 0.62-1.09-0.02-0.16-0.28-0.3-0.68-0.4-0.49-0.12-1.16-0.14-1.89-0.04-0.72 0.1-1.36 0.31-1.8 0.55-0.36 0.2-0.57 0.41-0.55 0.57 0.03 0.22 0.33 0.59 0.79 0.9 0.47 0.32 1.11 0.55 1.79 0.46h0.01c0.67-0.09 1.28-0.5 1.71-0.95z"/><path class="st0" d="m96.65 32.59c-0.05-1 0.72-1.85 1.72-1.9s1.85 0.72 1.9 1.72c0.15 2.8-0.19 5.02-0.55 7.35-0.27 1.74-0.55 3.56-0.61 5.59-0.06 1.93 0.19 4.07 0.46 6.27 0.7 5.79 1.44 11.99-2.86 18.4-0.56 0.83-1.68 1.05-2.51 0.5-0.83-0.56-1.05-1.68-0.5-2.51 3.54-5.29 2.88-10.8 2.26-15.96-0.28-2.3-0.55-4.54-0.47-6.8 0.07-2.34 0.36-4.21 0.64-6.02 0.34-2.18 0.65-4.24 0.52-6.64z"/></svg>
