<?xml version="1.0" encoding="UTF-8"?>
<svg version="1.1" viewBox="0 0 32 32" xmlns="http://www.w3.org/2000/svg">
<g fill="none" fill-rule="evenodd">
<g fill="#157EFB">
<path d="m21 26v2.0026c0 1.1065-0.89428 1.9974-1.9974 1.9974h-15.005c-1.1065 0-1.9974-0.89871-1.9974-2.0073v-22.985c0-1.109 0.89925-2.0073 2.0085-2.0073h9.9915v6.0019c0 1.1114 0.89808 1.9981 2.0059 1.9981h4.9941v2h-9.9932c-1.6606 0-3.0068 1.3423-3.0068 2.9988v7.0024c0 1.6562 1.336 2.9988 3.0068 2.9988h9.9932zm-6-23v5.9971c0 0.5539 0.45098 1.0029 0.99078 1.0029h5.0092l-6-7zm-4.0054 11c-1.1016 0-1.9946 0.90018-1.9946 1.992v7.016c0 1.1002 0.90234 1.992 1.9946 1.992h17.011c1.1016 0 1.9946-0.90018 1.9946-1.992v-7.016c0-1.1002-0.90234-1.992-1.9946-1.992h-17.011zm9.6811 8.8828c-0.21248 0.075977-0.44162 0.11725-0.68053 0.11725h-0.99024c-1.111 0-2.0049-0.89808-2.0049-2.0059v-2.9882c0-1.1194 0.89762-2.0059 2.0049-2.0059h0.99024c1.111 0 2.0049 0.89808 2.0049 2.0059v2.9882c0 0.50528-0.1829 0.96312-0.48542 1.3134l0.75318 0.75318-0.70711 0.70711-0.88502-0.88502zm-0.88275-0.88275h-0.79394c-0.5563 0-0.99896-0.44763-0.99896-0.99981v-3.0004c0-0.55609 0.44725-0.99981 0.99896-0.99981h1.0021c0.5563 0 0.99896 0.44763 0.99896 0.99981v3.0004c0 0.22445-0.072864 0.4306-0.19605 0.59665l-1.3646-1.3646-0.70711 0.70711 1.0607 1.0607zm-6.788-6c-1.1073 0-2.0049 0.88773-2.0049 2 0 1.1046 0.88773 2 2 2h0.99063c0.55746 0 1.0094 0.44386 1.0094 1 0 0.55228-0.44266 1-0.99896 1h-1.0021c-0.55171 0-0.99896-0.45628-0.99896-0.99553v-0.011307h-1v0.0057569c0 1.1052 0.8939 2.0011 2.0049 2.0011h0.99024c1.1073 0 2.0049-0.88773 2.0049-2 0-1.1046-0.88773-2-2-2h-0.99063c-0.55746 0-1.0094-0.44386-1.0094-1 0-0.55228 0.44266-1 0.99896-1h1.0021c0.55171 0 0.99896 0.45319 0.99896 1h1c0-1.1046-0.8939-2-2.0049-2h-0.99024zm14.995 6v1h-5v-7h1v6h4z"/>
</g>
</g>
</svg>
